<svg width="80" height="80" viewBox="0 0 80 80" fill="none" xmlns="http://www.w3.org/2000/svg">
<g clip-path="url(#clip0_813_99)">
<path d="M80 40C80 62.0914 62.0914 80 40 80C17.9086 80 0 62.0914 0 40C0 17.9086 17.9086 0 40 0C62.0914 0 80 17.9086 80 40Z" fill="#1D2633"/>
<path d="M69.7127 50.2129C71.0635 50.2129 72.0243 51.5257 71.5163 52.7773C66.4657 65.2229 54.2573 73.9996 39.999 73.9996C25.7408 73.9996 13.5324 65.2229 8.4817 52.7773C7.97373 51.5257 8.93455 50.2129 10.2854 50.2129H69.7127Z" fill="#EDEBDE"/>
<path d="M71.5163 27.2222C72.0243 28.4739 71.0635 29.7867 69.7127 29.7867H10.2854C8.93454 29.7867 7.97373 28.4739 8.48169 27.2222C13.5324 14.7767 25.7408 6 39.999 6C54.2573 6 66.4655 14.7767 71.5163 27.2222Z" fill="#EDEBDE"/>
<path d="M69.8368 37.1504C72.084 37.1504 73.1684 38.7182 73.1684 40.5342V43.9442H70.8167V40.9393C70.8167 40.1162 70.5162 39.4368 69.6539 39.4368C68.7916 39.4368 68.5042 40.1162 68.5042 40.9393V43.9442H66.1525V40.9393C66.1525 40.1162 65.8651 39.4368 65.0028 39.4368C64.1405 39.4368 63.84 40.1162 63.84 40.9393V43.9442H61.4883V40.5342C61.4883 38.7182 62.5727 37.1504 64.8199 37.1504C66.048 37.1504 66.9364 37.6338 67.3414 38.4308C67.7726 37.6338 68.7133 37.1504 69.8368 37.1504Z" fill="#EDEBDE"/>
<path d="M57.2622 41.8523C58.02 41.8523 58.3466 41.1599 58.3466 40.3368V37.4102H60.6983V40.6242C60.6983 42.5447 59.5747 44.1387 57.2622 44.1387C54.9497 44.1387 53.8262 42.5447 53.8262 40.6242V37.4102H56.1778V40.3368C56.1778 41.1599 56.5045 41.8523 57.2622 41.8523Z" fill="#EDEBDE"/>
<path d="M50.3688 44.1517C48.8925 44.1517 47.9387 43.6422 47.377 42.6493L49.0754 41.6955C49.3106 42.1136 49.6633 42.3226 50.2512 42.3226C50.7346 42.3226 50.9567 42.1528 50.9567 41.9438C50.9567 41.1468 47.5076 41.9568 47.5076 39.4222C47.5076 38.1941 48.5528 37.2012 50.3296 37.2012C51.8844 37.2012 52.7336 37.9589 53.1125 38.6906L51.414 39.6574C51.2703 39.2654 50.8261 39.0303 50.3819 39.0303C50.0422 39.0303 49.8593 39.174 49.8593 39.37C49.8593 40.18 53.3084 39.4353 53.3084 41.8915C53.3084 43.2633 51.9628 44.1517 50.3688 44.1517Z" fill="#EDEBDE"/>
<path d="M42.1525 46.9482H39.8008V40.664C39.8008 38.6651 41.3033 37.2148 43.3937 37.2148C45.4318 37.2148 46.9865 38.7696 46.9865 40.664C46.9865 42.7544 45.6017 44.1393 43.5243 44.1393C43.0409 44.1393 42.5575 43.9956 42.1525 43.7734V46.9482ZM43.3937 41.9313C44.1384 41.9313 44.6348 41.3564 44.6348 40.6771C44.6348 39.9846 44.1384 39.4228 43.3937 39.4228C42.649 39.4228 42.1525 39.9846 42.1525 40.6771C42.1525 41.3564 42.649 41.9313 43.3937 41.9313Z" fill="#EDEBDE"/>
<path d="M37.4442 36.7186C36.6734 36.7186 36.0332 36.0784 36.0332 35.3076C36.0332 34.5367 36.6734 33.8965 37.4442 33.8965C38.2151 33.8965 38.8553 34.5367 38.8553 35.3076C38.8553 36.0784 38.2151 36.7186 37.4442 36.7186ZM36.2684 37.411H38.6201V43.9435H36.2684V37.411Z" fill="#EDEBDE"/>
<path d="M31.757 44.1387C29.7189 44.1387 28.1641 42.5709 28.1641 40.6634C28.1641 38.769 29.7189 37.2012 31.757 37.2012C33.7951 37.2012 35.3499 38.769 35.3499 40.6634C35.3499 42.5709 33.7951 44.1387 31.757 44.1387ZM31.757 41.9307C32.5017 41.9307 32.9982 41.3558 32.9982 40.6765C32.9982 39.984 32.5017 39.4092 31.757 39.4092C31.0123 39.4092 30.5158 39.984 30.5158 40.6765C30.5158 41.3558 31.0123 41.9307 31.757 41.9307Z" fill="#EDEBDE"/>
<path d="M23.7231 47.1442C22.103 47.1442 20.9272 46.4256 20.3262 45.1453L22.2729 44.1001C22.4819 44.5443 22.8739 45.0016 23.6839 45.0016C24.5331 45.0016 25.0949 44.4659 25.1602 43.5252C24.8467 43.7996 24.3502 44.0086 23.6055 44.0086C21.7895 44.0086 20.3262 42.6107 20.3262 40.6509C20.3262 38.7565 21.8809 37.2148 23.9191 37.2148C26.0094 37.2148 27.5119 38.6651 27.5119 40.664V43.2509C27.5119 45.6025 25.8788 47.1442 23.7231 47.1442ZM23.8799 41.8006C24.5854 41.8006 25.121 41.3172 25.121 40.5987C25.121 39.8932 24.5854 39.4228 23.8799 39.4228C23.1874 39.4228 22.6387 39.8932 22.6387 40.5987C22.6387 41.3172 23.1874 41.8006 23.8799 41.8006Z" fill="#EDEBDE"/>
<path d="M16.337 44.1387C14.2989 44.1387 12.7441 42.5709 12.7441 40.6634C12.7441 38.769 14.2989 37.2012 16.337 37.2012C18.3751 37.2012 19.9299 38.769 19.9299 40.6634C19.9299 42.5709 18.3751 44.1387 16.337 44.1387ZM16.337 41.9307C17.0817 41.9307 17.5782 41.3558 17.5782 40.6765C17.5782 39.984 17.0817 39.4092 16.337 39.4092C15.5923 39.4092 15.0958 39.984 15.0958 40.6765C15.0958 41.3558 15.5923 41.9307 16.337 41.9307Z" fill="#EDEBDE"/>
<path d="M8.46193 35.125V41.7228H12.3553V43.9438H8.13531C6.6459 43.9438 6.04492 43.1599 6.04492 41.9187V35.125H8.46193Z" fill="#EDEBDE"/>
<path d="M34 6.52774C35.9477 6.18095 37.9527 6 40.0001 6C42.0474 6 44.0524 6.18095 46 6.52773V29.7867H34V6.52774Z" fill="#AC2828"/>
<path d="M46.0007 50.2129H33.9995C33.9743 55.4308 33.0237 60.6034 31.1912 65.4902L28.7188 72.0832C32.2489 73.3245 36.0457 73.9996 40.0002 73.9996C43.9546 73.9996 47.7514 73.3245 51.2815 72.0832L48.809 65.4902C46.9765 60.6034 46.0259 55.4308 46.0007 50.2129Z" fill="#AC2828"/>
<path d="M46 6.52734C50.3408 7.30023 54.3967 8.89685 58 11.1498V29.7863H46V6.52734Z" fill="#306A9F"/>
<path d="M51.2808 72.0832C56.7382 70.1643 61.5584 66.8924 65.3386 62.67L64.7487 62.2946C60.6051 59.6577 58.0725 55.1143 58.001 50.2129H46C46.0252 55.4308 46.9759 60.6034 48.8085 65.4902L51.2808 72.0832Z" fill="#306A9F"/>
<path d="M22 11.1498C25.6033 8.89686 29.6591 7.30023 34 6.52734V29.7863H22V11.1498Z" fill="#DEB038"/>
<path d="M21.9979 50.2129H33.9989C33.9738 55.4085 33.0311 60.5592 31.2139 65.4276L28.7181 72.0832C23.2606 70.1643 18.4405 66.8924 14.6602 62.67L15.2501 62.2946C19.3937 59.6577 21.9264 55.1143 21.9979 50.2129Z" fill="#DEB038"/>
</g>
<defs>
<clipPath id="clip0_813_99">
<rect width="80" height="80" fill="white"/>
</clipPath>
</defs>
</svg>
