<svg width="175" height="40" viewBox="0 0 175 40" fill="none" xmlns="http://www.w3.org/2000/svg">
<g clip-path="url(#clip0_813_120)">
<path d="M170.394 7.66415L174.568 11.8668C174.714 11.9829 174.822 12.1396 174.878 12.3171C174.963 13.3515 174.18 13.4081 173.38 13.4659C173.034 13.4909 172.685 13.5162 172.402 13.621C170.998 14.0009 169.746 14.8033 168.815 15.9193C167.883 17.0353 167.318 18.4109 167.195 19.8593C167.105 20.0266 166.969 20.1643 166.802 20.2558C166.636 20.3474 166.447 20.3888 166.257 20.3753C166.037 20.3558 165.831 20.2595 165.675 20.1032L164.305 18.7238C164.315 18.8182 164.315 18.9117 164.315 18.9869V19.8968C164.315 19.9543 164.317 20.0097 164.31 20.065C164.301 20.127 164.28 20.1888 164.231 20.2532V20.3377C164.231 20.3808 164.236 20.4209 164.241 20.4616C164.251 20.5449 164.262 20.6307 164.231 20.7505C164.201 20.8622 164.198 20.9925 164.194 21.1088C164.193 21.1779 164.191 21.2421 164.184 21.2945C164.174 21.3672 164.174 21.4448 164.168 21.5223C164.162 21.5949 164.15 21.6674 164.118 21.7354C164.074 21.8306 164.059 21.9215 164.055 22.0139C164.052 22.0581 164.052 22.1026 164.052 22.1482L163.996 22.439L161.867 32.5891L161.698 33.3489L161.632 34.4559L160.694 39.2495L160.544 40H84.6248L84.2589 39.6341L84.1932 39.9531H76.0694L71.5478 35.4034L71.9793 33.3489H69.4277L67.8424 31.7448C65.8749 33.1775 63.4934 33.9285 61.06 33.8837C58.4442 33.9866 55.8941 33.0488 53.9681 31.2758L51.5009 28.7899L50.9662 31.2851C50.9006 31.6416 50.8161 31.9794 50.7223 32.3077L50.6379 32.6173L50.4972 33.0675C50.4856 33.1066 50.4699 33.1444 50.4503 33.1801C50.3106 33.5937 50.1446 33.9979 49.9531 34.3902C49.9581 34.4054 49.9581 34.4219 49.9531 34.4371C49.9285 34.4891 49.9003 34.5392 49.8686 34.5872C49.727 34.8675 49.5705 35.1399 49.3996 35.4034C49.3679 35.4513 49.3397 35.5015 49.3152 35.5535L49.212 35.666C48.9827 35.9949 48.732 36.3082 48.4615 36.6041C48.3873 36.6783 48.3131 36.748 48.2377 36.8164C48.1607 36.8864 48.0825 36.9551 48.0018 37.0262L47.7955 37.2232C47.6654 37.3313 47.5323 37.4356 47.3964 37.5361C47.2843 37.619 47.1703 37.6992 47.0544 37.7767C45.1211 38.9222 42.891 39.4674 40.6473 39.3433C37.5516 39.3433 35.075 38.4427 33.5084 36.8668L29.0994 32.4296C27.3383 33.4262 25.3442 33.9377 23.3208 33.9118C20.7129 33.9925 18.1782 33.042 16.2664 31.2664L13.7993 28.7805L13.0019 32.6173L12.8424 33.3771H4.54036L0 28.7992L0.234521 27.6923L5.22515 3.72418L5.37521 2.97372H13.7054L13.9212 3.18013V2.97372H70.0469L70.2533 3.18013V2.97372H78.3771L82.9174 7.55158L82.6923 8.64913L82.4484 9.8499H84.7842L85.1501 10.2158C86.1779 9.61344 87.3453 9.29005 88.5366 9.27769C89.4126 9.26039 90.2825 9.42678 91.0903 9.76608C91.8982 10.1054 92.626 10.61 93.227 11.2476L93.105 11.1069L95.3095 13.3302C96.651 10.8068 99.6622 9.27769 103.752 9.27769C106.923 9.27769 109.259 10.0844 110.675 11.5478L112.27 13.152L112.805 10.5722L112.964 9.82173H121.097L123.424 12.1576L123.752 10.5816L123.912 9.83112H139.916L140.347 10.2627C141.431 9.62306 142.672 9.29818 143.931 9.32458C144.688 9.29503 145.442 9.43365 146.14 9.73047C146.837 10.0273 147.46 10.475 147.964 11.0413C147.938 11.0118 147.913 10.9823 147.888 10.9533C147.843 10.8995 147.798 10.847 147.75 10.7984L148.565 11.6135C149.275 10.8782 150.129 10.2959 151.072 9.90235C152.016 9.50877 153.03 9.3121 154.052 9.32458C154.595 9.2912 155.137 9.3374 155.663 9.46033L154.775 8.56473C154.654 8.43528 154.572 8.27421 154.539 8.10021C154.506 7.92621 154.523 7.74631 154.587 7.58147C154.652 7.41657 154.762 7.27343 154.905 7.16854C155.048 7.06365 155.217 7.00129 155.394 6.98875H156.107C156.299 6.97043 156.49 6.94226 156.679 6.9043C157.676 6.69474 158.614 6.26624 159.425 5.6497C160.237 5.03323 160.901 4.24418 161.37 3.33959C161.411 3.26962 161.448 3.19765 161.482 3.12384V3.07695C161.805 2.38215 162.001 1.63581 162.064 0.872416C162.08 0.635203 162.187 0.413106 162.361 0.251186C162.535 0.0892079 162.764 -0.00056984 163.002 2.72188e-06H163.077C163.219 0.0135152 163.357 0.0594347 163.479 0.134211C163.601 0.209045 163.704 0.310732 163.781 0.431543C164.456 1.08821 168.208 4.90617 168.208 4.90617C168.521 5.24238 168.498 5.67885 168.474 6.12046C168.459 6.39352 168.444 6.66858 168.508 6.92308C168.679 6.95371 168.852 6.9769 169.024 6.99259C169.19 7.00753 169.356 7.01566 169.522 7.01687C169.716 7.02093 169.905 7.0854 170.061 7.2014C170.217 7.31735 170.334 7.4791 170.394 7.66415Z" fill="black"/>
<path d="M42.9362 10.7512H48.8649L45.5441 26.5016C44.9344 29.4847 43.7711 31.1921 42.0075 32.4022C40.2237 33.4373 38.1754 33.9265 36.1164 33.8093C32.1952 33.8093 28.4334 32.1677 28.0582 28.1808H34.0244C34.212 29.1189 35.0751 29.6536 36.3884 29.6536C38.1614 29.6536 38.9775 28.5842 39.3434 26.905L39.6998 25.1695H39.5685C39.045 25.745 38.41 26.208 37.7021 26.5305C36.9941 26.853 36.2281 27.0283 35.4503 27.0457C31.9982 27.0457 29.2589 24.2971 29.3152 20.2727C29.3903 15.5823 32.4484 10.254 37.5798 10.254C38.5522 10.1885 39.523 10.4028 40.3775 10.8716C41.232 11.3403 41.9343 12.044 42.4015 12.8994H42.5047L42.9362 10.7512ZM37.8424 22.6461C40.122 22.6461 41.3884 20.0195 41.4259 17.7587C41.4259 16.2484 40.8349 14.7005 39.0901 14.7005C36.7073 14.7005 35.4972 17.3553 35.4597 19.6348C35.4597 21.1733 36.0507 22.6461 37.7955 22.6461M104.4 23.1527C104.4 24.1564 103.536 24.5598 102.401 24.5598C100.525 24.5598 99.8968 23.6217 99.8874 22.3084H93.9869C93.8837 27.2052 98.2552 28.4153 102.139 28.4153C107.101 28.4153 110.319 26.2671 110.385 21.9801C110.385 18.556 107.467 17.5148 104.597 16.8487C102.392 16.3422 101.426 15.9763 101.435 15.1414C101.445 14.3065 102.43 13.9688 103.396 13.9688C104.606 13.9688 105.431 14.4003 105.516 15.5073H111.248C111.182 11.4172 107.495 10.2165 103.743 10.2165C99.1839 10.2165 95.6285 12.2896 95.5722 16.2108C95.5722 19.2971 97.6548 20.4322 100.797 21.239C102.814 21.7737 104.418 21.9425 104.4 23.1527ZM148.236 13.2934H148.133C147.878 12.3696 147.314 11.5609 146.536 11.0012C145.758 10.4416 144.812 10.1647 143.855 10.2165C141.304 10.2165 139.747 11.4829 138.274 13.3966H138.171L138.715 10.7512H132.748L129.174 27.8431H135.413L137.289 18.6217C137.72 16.6142 138.743 15.2071 140.291 15.2071C141.839 15.2071 142.045 16.4453 141.726 17.9557L139.662 27.8431H145.9L147.777 18.6217C148.208 16.4829 149.231 15.2071 150.778 15.2071C152.326 15.2071 152.533 16.3797 152.214 17.9557L150.15 27.8431H156.388L158.621 17.6836C159.559 13.3966 158.124 10.1789 154.006 10.1789C152.86 10.1742 151.732 10.4568 150.724 11.0009C149.716 11.545 148.861 12.3332 148.236 13.2934ZM1.14453 27.8431H7.58918L12.5704 3.875H6.13515L1.14453 27.8431ZM20.5441 10.2446C24.8968 10.2446 29.0526 12.6273 28.9869 18.0213C28.9306 23.9219 24.9156 28.3403 18.7805 28.3403C14.5591 28.3403 10.3378 25.9951 10.4128 20.6292C10.516 14.8694 14.4747 10.2446 20.5441 10.2446ZM18.9588 24.1564C21.7074 24.1564 22.7111 20.1695 22.7111 17.8243C22.7111 16.1452 22.1952 14.5035 20.3846 14.5035C17.6642 14.5035 16.7355 18.7249 16.7355 20.9013C16.7355 22.6461 17.2233 24.1564 18.9963 24.1564M14.7186 3.875L13.7805 8.66862H67.8987L68.8368 3.875H14.7186ZM58.2458 10.2446C62.5985 10.2446 66.7542 12.6273 66.6886 18.0213C66.6323 23.9219 62.6079 28.3403 56.4728 28.3403C52.2514 28.3403 48.03 25.9951 48.1145 20.6292C48.2458 14.8694 52.2045 10.2446 58.2458 10.2446ZM56.6886 24.1564C59.4372 24.1564 60.4409 20.1695 60.4409 17.8243C60.4409 16.1452 59.9156 14.5035 58.1051 14.5035C55.394 14.5035 54.4559 18.7249 54.4559 20.9013C54.4559 22.6461 54.9437 24.1564 56.7261 24.1564M71.0507 3.875L70.1126 8.66862H76.3415L77.2796 3.875H71.0507ZM66.0601 27.8431H72.2983L75.8724 10.7512H69.5966L66.0601 27.8431ZM85.9662 28.4153C84.9734 28.4858 83.9805 28.2783 83.0989 27.816C82.2174 27.3537 81.4821 26.6549 80.9756 25.7981H80.8724L78.9963 34.4472H72.6829L77.7486 10.7512H83.6773L83.2083 13.0307C83.8274 12.1887 84.6294 11.498 85.5539 11.0105C86.4784 10.5231 87.5014 10.2516 88.546 10.2165C92.2983 10.2165 94.5028 13.4341 94.4372 17.618C94.3527 22.8806 91.6229 28.4153 85.9287 28.4153H85.9662ZM85.7223 15.057C83.3115 15.057 81.8293 18.1433 81.7918 20.5167C81.7918 22.1677 82.3734 24.0063 84.3527 24.0063C86.9325 24.0063 87.9925 20.5917 88.0206 18.3121C88.0206 16.7643 87.5704 15.057 85.7223 15.057ZM121.792 25.1508H121.895L121.351 27.8619H127.279L130.854 10.7699H124.625L122.636 20.3196C122.233 22.299 121.013 23.3403 119.475 23.3403C117.936 23.3403 117.598 21.8956 117.908 20.3853L119.925 10.7699H113.696L111.491 21.3234C110.553 25.92 112.692 28.3966 116.276 28.3966C117.401 28.3856 118.504 28.0781 119.472 27.5049C120.44 26.9317 121.241 26.1132 121.792 25.132V25.1508ZM155.253 34.5317L156.191 29.738H82.2139L81.2758 34.5317H155.253Z" fill="white"/>
<path d="M161.961 15.4414C161.9 15.4367 161.84 15.4198 161.785 15.3917C161.729 15.3637 161.68 15.325 161.64 15.2779C161.6 15.2308 161.57 15.1763 161.551 15.1174C161.532 15.0585 161.525 14.9965 161.53 14.9348C161.608 14.0994 161.509 13.2568 161.239 12.4624C160.969 11.668 160.534 10.9395 159.962 10.3249C159.391 9.71022 158.696 9.2232 157.924 8.8957C157.151 8.56821 156.318 8.40763 155.479 8.42449C155.355 8.42449 155.236 8.37508 155.148 8.28711C155.06 8.19915 155.01 8.07984 155.01 7.95544C155.01 7.83104 155.06 7.71175 155.148 7.62379C155.236 7.53582 155.355 7.4864 155.479 7.4864C155.704 7.50094 155.93 7.50094 156.155 7.4864C157.821 7.30889 159.373 6.5561 160.544 5.35757C161.716 4.15904 162.432 2.58974 162.571 0.919795C162.581 0.802012 162.634 0.692146 162.721 0.612143C162.808 0.532141 162.922 0.487905 163.04 0.488284C163.102 0.493019 163.162 0.509907 163.217 0.537968C163.272 0.566029 163.321 0.604712 163.361 0.651793C163.402 0.698875 163.432 0.753421 163.451 0.812297C163.47 0.871173 163.477 0.933209 163.472 0.994844C163.394 1.82951 163.493 2.67126 163.762 3.46504C164.032 4.25881 164.466 4.98674 165.036 5.60124C165.607 6.21573 166.3 6.70295 167.071 7.03104C167.843 7.35913 168.675 7.52069 169.513 7.50516C169.637 7.50516 169.757 7.55459 169.845 7.64255C169.933 7.73051 169.982 7.84981 169.982 7.97421C169.982 8.09861 169.933 8.21792 169.845 8.30588C169.757 8.39384 169.637 8.44325 169.513 8.44325C167.731 8.47269 166.022 9.15923 164.715 10.3712C163.408 11.5831 162.594 13.235 162.431 15.0099C162.421 15.1277 162.368 15.2376 162.281 15.3176C162.194 15.3976 162.08 15.4418 161.961 15.4414Z" fill="white"/>
</g>
<defs>
<clipPath id="clip0_813_120">
<rect width="175" height="40" fill="white"/>
</clipPath>
</defs>
</svg>
