<svg width="70" height="44" viewBox="0 0 70 44" fill="none" xmlns="http://www.w3.org/2000/svg">
<g clip-path="url(#clip0_813_128)">
<path d="M65.5276 5.4081C65.5276 5.4594 65.5276 5.52353 65.5145 5.56201C65.4489 6.06222 65.4489 6.56243 65.4882 7.07547C65.5145 7.20373 65.5407 7.33199 65.6457 7.4346C65.8162 7.62698 66.0785 7.58851 66.1835 7.35764C66.236 7.24221 66.236 7.12677 66.2097 7.01134C66.0785 6.52395 66.0523 6.01092 66.0392 5.5107C66.0392 5.48505 66.0392 5.44657 66.0392 5.4081C66.1835 5.39527 66.3147 5.38244 66.4327 5.38244C66.5246 5.36962 66.6033 5.35679 66.6689 5.31831C66.8656 5.21571 66.8656 4.99767 66.6557 4.89506C66.577 4.85658 66.4721 4.84375 66.3803 4.84375C66.0523 4.85658 65.7244 4.85658 65.3964 4.85658C65.2784 4.85658 65.1603 4.86941 65.0422 4.88223C64.9766 4.89506 64.8979 4.89506 64.8455 4.93354C64.7536 4.97201 64.7012 5.03614 64.7012 5.12592C64.7143 5.21571 64.7536 5.26701 64.8455 5.30549C64.8979 5.34397 64.9635 5.35679 65.0291 5.35679C65.1865 5.36962 65.3571 5.39527 65.5276 5.4081ZM69.135 5.99809C69.135 6.01092 69.1481 6.02374 69.1481 6.02374C69.2006 6.37004 69.2531 6.70352 69.2924 7.03699C69.3056 7.15242 69.3187 7.25503 69.3974 7.34481C69.5679 7.56285 69.8303 7.5372 69.9483 7.30634C70.0008 7.1909 70.0139 7.07547 69.9877 6.94721C69.909 6.56243 69.8696 6.17765 69.7909 5.8057C69.7384 5.57483 69.6729 5.35679 69.6073 5.15158C69.5679 5.02332 69.4761 4.93353 69.3187 4.92071C69.1613 4.89506 69.0432 4.97201 68.9776 5.08745C68.8989 5.19005 68.8333 5.29266 68.7808 5.4081C68.689 5.61331 68.6103 5.81853 68.5054 6.01092C68.4922 6.06222 68.4791 6.1007 68.4529 6.13917C68.4398 6.11352 68.4267 6.1007 68.4267 6.1007C68.2561 5.78005 68.0987 5.4594 67.9282 5.15158C67.9019 5.12592 67.8888 5.10027 67.8757 5.07462C67.797 4.95919 67.7052 4.89506 67.5609 4.89506C67.4297 4.90788 67.3247 4.98484 67.2592 5.10027C67.2329 5.15158 67.2329 5.19005 67.2198 5.24136C67.1673 5.65179 67.1017 6.06222 67.0493 6.47265C67.023 6.70352 67.0099 6.93438 67.0099 7.16525C66.9968 7.21655 67.0099 7.28068 67.0361 7.33199C67.0624 7.43459 67.1411 7.49873 67.246 7.51155C67.3772 7.52438 67.469 7.4859 67.5084 7.38329C67.5477 7.30634 67.5609 7.24221 67.574 7.17808C67.6265 6.94721 67.6658 6.72917 67.7052 6.51113C67.7314 6.38287 67.7445 6.28026 67.7839 6.13917C67.8101 6.19048 67.8363 6.22896 67.8626 6.26743C67.9806 6.42135 68.0987 6.57526 68.243 6.70352C68.3873 6.80612 68.5054 6.7933 68.6234 6.67786C68.6497 6.65221 68.6628 6.63939 68.689 6.61373C68.8071 6.43417 68.9514 6.25461 69.0694 6.07504C69.0957 6.04939 69.1088 6.02374 69.135 5.99809Z" fill="#3A3B7B"/>
<path d="M38.9086 5.6598C38.8174 5.90355 38.8 6.07916 38.8421 6.22512C38.8886 6.4236 39.0093 6.48858 39.1731 6.4381C40.7139 6.06557 44.0926 7.12297 45.3435 7.41768C45.6385 7.47956 45.8785 7.10721 45.6772 6.77337C45.3834 6.45007 42.0062 5.0659 40.7176 4.99043C40.2125 4.96252 39.3095 4.83588 38.9086 5.6598Z" fill="#3A3B7B"/>
<path d="M52.1135 1.17928C52.2777 1.27195 52.3695 1.36035 52.4148 1.45912C52.4823 1.58868 52.4467 1.67832 52.3333 1.72406C51.3148 2.21008 49.9595 4.30249 49.4124 5.02414C49.2798 5.19015 48.9739 5.09368 48.9277 4.82068C48.9372 4.512 50.1386 2.24127 50.8091 1.6228C51.0726 1.38133 51.5079 0.907536 52.1135 1.17928Z" fill="#3A3B7B"/>
<path d="M44.0017 0.149796C44.199 0.00441889 44.404 -0.0465256 44.5087 0.0479512C46.0454 1.3329 46.8603 3.36773 47.3649 5.23057C47.3839 5.27397 47.3851 5.33625 47.3699 5.40122C47.3636 5.45675 47.3221 5.51541 47.2562 5.5608C47.1858 5.61091 47.1252 5.62617 47.0967 5.58299C46.4232 4.68732 42.5765 1.20242 44.0017 0.149796Z" fill="#3A3B7B"/>
<path d="M11.461 22.4279C11.8293 22.1598 12.2297 21.9366 12.6534 21.7634C13.0967 21.6395 13.5692 21.66 13.9995 21.822C14.4297 21.984 14.7944 22.2785 15.0382 22.6611C15.2563 23.0427 15.3416 23.4833 15.2814 23.9165C15.2212 24.3496 15.0187 24.7519 14.7043 25.0628C14.4606 25.3148 14.1839 25.5343 13.8816 25.7157C12.5342 26.5668 11.1748 27.3712 9.81547 28.2223C9.53732 28.4353 9.24225 28.6264 8.93308 28.7936C8.46281 29.0229 7.92537 29.0843 7.41368 28.9672C6.902 28.8502 6.44826 28.5619 6.13092 28.1524C5.89369 27.8624 5.69348 27.5453 5.53471 27.208C4.24691 24.5615 2.91142 21.9266 1.67131 19.2334C1.09895 18.0676 0.633913 16.7268 0.180798 15.4327C-0.0152406 15.0567 -0.0535225 14.6208 0.0741037 14.2176C0.20173 13.8144 0.485195 13.4758 0.864201 13.2738C1.24321 13.0718 1.68785 13.0224 2.10357 13.136C2.51929 13.2496 2.87329 13.5173 3.09027 13.8821C3.75722 14.7487 4.34761 15.6692 4.85504 16.6336C6.14284 18.9653 7.37103 21.297 8.61113 23.5588C8.68334 23.6838 8.76296 23.8044 8.84961 23.9202C9.783 23.5365 10.6609 23.0348 11.461 22.4279Z" fill="#3A3B7B"/>
<path d="M24.7756 21.6132C21.8304 24.9825 16.8938 24.1314 14.4136 19.7944C12.6488 16.7165 12.3388 11.6333 16.1784 8.42722C16.9983 7.75599 17.9787 7.29874 19.0282 7.09812C20.315 6.91775 21.6272 7.13971 22.7772 7.73229C23.9272 8.32487 24.8562 9.25773 25.4315 10.3975C27.5301 14.1283 27.232 18.885 24.7756 21.6132ZM23.5832 13.7552C23.2703 12.8384 22.6426 12.0557 21.8065 11.54C21.3334 11.2103 20.7585 11.05 20.1787 11.0861C19.5988 11.1222 19.0494 11.3525 18.6228 11.7382C16.9177 13.2189 16.5599 16.7282 17.8 18.8151C17.9581 19.1554 18.1902 19.4578 18.4803 19.7012C18.7704 19.9446 19.1114 20.1231 19.4794 20.2241C19.8474 20.3252 20.2335 20.3464 20.6108 20.2863C20.9881 20.2261 21.3473 20.0861 21.6635 19.876C22.5878 19.1753 23.2659 18.2105 23.6035 17.1157C23.9412 16.0208 23.9216 14.8503 23.5475 13.7669L23.5832 13.7552Z" fill="#3A3B7B"/>
<path d="M36.7949 15.2246C36.4934 15.288 36.1819 15.2918 35.8788 15.2357C35.5758 15.1796 35.2872 15.0649 35.0302 14.8982C34.8053 14.7724 34.6117 14.5995 34.4633 14.3918C34.315 14.1841 34.2156 13.9469 34.1723 13.6971C34.1289 13.4474 34.1428 13.1914 34.2127 12.9475C34.2827 12.7036 34.4072 12.4779 34.5771 12.2866C34.8731 11.9022 35.2933 11.627 35.7695 11.5055C37.0128 11.1527 38.2927 10.9376 39.5852 10.8643C39.8692 10.832 40.1569 10.8555 40.4314 10.9334C40.706 11.0114 40.9618 11.1421 41.184 11.3181C41.4061 11.494 41.5901 11.7116 41.7251 11.958C41.86 12.2044 41.9433 12.4747 41.97 12.753C42.3426 14.12 42.3834 15.5533 42.0892 16.9385C41.0161 21.4154 37.3196 22.9543 33.17 21.5203C32.0052 21.1369 30.9839 20.4225 30.2367 19.4684C29.2401 18.3194 28.5335 16.9577 28.1738 15.4928C27.8824 14.1883 27.9143 12.8347 28.267 11.5448C28.6196 10.2549 29.2827 9.06615 30.2009 8.07785C31.0723 7.00368 32.2033 6.15831 33.492 5.61786C34.3063 5.17901 35.2592 5.05423 36.163 5.2681C36.368 5.32358 36.5541 5.43168 36.702 5.58119C36.8499 5.73071 36.9542 5.91618 37.0041 6.11839C37.054 6.32059 37.0476 6.53216 36.9857 6.73116C36.9237 6.93015 36.8085 7.10932 36.6519 7.25008C36.3541 7.51363 36.0306 7.74793 35.686 7.9496C34.6259 8.60967 33.7034 9.46022 32.9673 10.4562C32.4848 11.1007 32.1525 11.8408 31.9939 12.6243C31.8352 13.4078 31.8541 14.2158 32.0492 14.9915C32.3196 16.0491 32.9197 16.9984 33.7662 17.7079C36.3895 20.0397 39.7998 17.7895 39.2036 14.6067C38.3332 14.8166 37.57 15.0381 36.7949 15.2246Z" fill="#3A3B7B"/>
<path d="M52.8215 21.8007C48.9462 24.1325 44.5343 21.8007 43.5684 16.9041C42.8649 13.4065 44.2004 8.50979 48.8747 6.6444C49.8692 6.25605 50.9479 6.1197 52.0107 6.248C53.2876 6.47655 54.459 7.09118 55.3596 8.00525C56.2602 8.91931 56.8448 10.0867 57.0307 11.3429C57.8177 15.505 56.0291 19.947 52.8215 21.8007ZM54.169 13.9544C54.1678 12.9859 53.8174 12.0487 53.1793 11.3079C52.8382 10.8497 52.3451 10.5214 51.7841 10.3789C51.223 10.2365 50.6289 10.2887 50.1028 10.5268C48.0042 11.4128 46.5256 14.6306 47.0622 16.9974C47.1032 17.3688 47.2266 17.727 47.4239 18.0469C47.6212 18.3668 47.8876 18.6407 48.2045 18.8495C48.5213 19.0582 48.881 19.1968 49.2583 19.2555C49.6357 19.3141 50.0216 19.2915 50.389 19.1892C51.4983 18.8103 52.4588 18.1022 53.1364 17.1637C53.8141 16.2252 54.1751 15.1032 54.169 13.9544Z" fill="#3A3B7B"/>
<path d="M60.9503 22.7795C60.8918 23.2062 60.6624 23.5927 60.3124 23.854C59.9624 24.1152 59.5206 24.2299 59.0842 24.1727C58.6478 24.1155 58.2525 23.8911 57.9853 23.5489C57.718 23.2068 57.6008 22.7748 57.6593 22.3481C57.7178 21.9214 57.9473 21.5349 58.2972 21.2736C58.6472 21.0123 59.089 20.8977 59.5254 20.9549C59.9618 21.0121 60.3571 21.2364 60.6244 21.5786C60.8916 21.9208 61.0089 22.3528 60.9503 22.7795ZM59.9129 7.05191C60.1397 6.71326 60.4724 6.45537 60.8614 6.3167C61.2503 6.17803 61.6747 6.16601 62.0712 6.28244C62.4743 6.38105 62.8304 6.61206 63.0801 6.93679C63.3297 7.26153 63.4576 7.66026 63.4425 8.06622C63.3899 8.71739 63.2903 9.36412 63.1444 10.0015C62.7509 12.1584 62.3693 14.3152 61.952 16.4488C61.7612 17.2999 61.5108 18.116 61.2365 18.9787C61.1411 19.2484 60.9817 19.4921 60.7715 19.6899C60.6408 19.8387 60.4739 19.9528 60.2861 20.0217C60.0983 20.0907 59.8958 20.1122 59.6973 20.0843C59.4988 20.0564 59.3106 19.98 59.1503 19.8622C58.99 19.7443 58.8627 19.5888 58.7802 19.4101C58.6384 19.0895 58.5614 18.745 58.5536 18.3958C58.5536 16.9501 58.5536 15.4928 58.649 14.0354C58.8111 11.9556 59.1299 9.89032 59.6029 7.85636C59.6586 7.58386 59.7635 7.32327 59.9129 7.08689V7.05191Z" fill="#3A3B7B"/>
<path fill-rule="evenodd" clip-rule="evenodd" d="M6.42312 32.1491C6.28233 32.4564 6.24372 32.799 6.31252 33.1287C6.35829 33.5633 6.45882 33.9908 6.61182 34.4014C6.80284 34.9042 7.01659 35.4014 7.28015 36.0142C7.34076 36.1552 7.4041 36.3024 7.47038 36.4573C7.8258 37.2875 8.27176 38.3485 8.86661 39.884C9.03498 40.3202 9.18449 40.76 9.33505 41.2028C9.39587 41.3817 9.45691 41.5612 9.51939 41.7411C9.74335 42.3807 10.1287 42.9553 10.6395 43.4107C10.8564 43.661 11.1441 43.8434 11.4667 43.9346C11.7956 44.0276 12.1454 44.0217 12.4708 43.9177C12.7962 43.8136 13.082 43.6162 13.2911 43.3511C13.4961 43.0912 13.618 42.778 13.6417 42.4508C13.7747 41.8134 13.7293 41.1525 13.5101 40.538C13.1622 39.5177 12.7659 38.4959 12.3089 37.4965L12.3068 37.4921C11.555 35.9285 10.7908 34.3757 9.99045 32.8223L9.98446 32.8114C9.75016 32.4067 9.44567 32.0449 9.08467 31.7423C8.85031 31.4722 8.52704 31.29 8.17004 31.2272C7.80543 31.1631 7.42939 31.2277 7.10905 31.4096C6.80601 31.5788 6.56579 31.8377 6.42312 32.1491Z" fill="#3A3B7B"/>
<path fill-rule="evenodd" clip-rule="evenodd" d="M17.9064 28.2986C16.7276 28.0001 15.4965 27.9566 14.2989 28.1712C13.3713 28.2605 12.459 28.4697 11.8255 28.8841C11.5033 29.095 11.2428 29.3658 11.0979 29.71C10.9522 30.0561 10.9336 30.4519 11.053 30.8929C11.271 31.7007 11.5541 32.4861 11.8362 33.269L11.8819 33.3958L11.883 33.3986C12.7324 35.673 13.5899 37.9397 14.4552 40.1986C14.5561 40.5546 14.6988 40.898 14.8804 41.2219L14.8838 41.2279C15.1237 41.6303 15.4314 41.9902 15.7939 42.2925C15.9752 42.4587 16.1994 42.5737 16.4425 42.6251C16.688 42.6769 16.9433 42.6619 17.1806 42.5815C17.418 42.5012 17.6282 42.3587 17.7884 42.1695C17.946 41.9834 18.0492 41.7592 18.0871 41.5206C18.2435 40.8724 18.1934 40.1929 17.9434 39.5733C17.8654 39.3648 17.8042 39.1517 17.7397 38.9274C17.7182 38.8526 17.6964 38.7765 17.6734 38.699C19.6541 37.942 21.7616 36.9241 22.5027 34.5561C22.7929 33.7378 22.8171 32.8517 22.5719 32.0193C22.3265 31.186 21.823 30.4474 21.1308 29.9052C20.1887 29.1462 19.0882 28.5978 17.9064 28.2986ZM14.6389 31.2031C14.6779 31.1921 14.7172 31.1819 14.7566 31.1724C16.0461 30.9742 17.3654 31.2383 18.4716 31.9159C18.9591 32.2474 19.1588 32.6157 19.1931 32.9701C19.2285 33.335 19.0928 33.7304 18.8202 34.1105C18.3051 34.8285 17.3651 35.4032 16.516 35.5103C15.897 34.1165 15.2684 32.6663 14.6389 31.2031Z" fill="#3A3B7B"/>
<path d="M25.7637 25.7478C27.1675 25.1139 28.9064 25.0044 30.2671 25.4501C30.6098 25.5477 30.9071 25.7588 31.1082 26.0473C31.308 26.334 31.4002 26.6795 31.3694 27.0249C31.3674 27.2491 31.3111 27.4697 31.2052 27.6687C31.0974 27.8713 30.9413 28.0455 30.7501 28.1767C30.5589 28.3078 30.3382 28.3921 30.1067 28.4222C29.8751 28.4524 29.6396 28.4276 29.4199 28.3499L29.4032 28.344L29.3875 28.3359C29.2751 28.2784 29.1557 28.2351 29.0322 28.2069L29.0244 28.2052C28.0672 27.9566 27.1643 28.3685 26.8345 28.8746C26.6772 29.1159 26.6577 29.3595 26.7887 29.5811C26.929 29.8184 27.2731 30.0847 27.9694 30.2745C28.1609 30.3259 28.3572 30.3755 28.5563 30.4259C29.1069 30.5653 29.6791 30.7101 30.2324 30.9108L30.2345 30.9116C32.7871 31.8612 33.7376 33.8279 33.4122 35.6777C33.0903 37.507 31.5278 39.1718 29.1781 39.5645C28.3231 39.7498 27.4333 39.7137 26.5968 39.4598C25.7582 39.2051 25.0023 38.7404 24.4042 38.1116L24.3886 38.0952C24.1998 37.8583 24.0728 37.58 24.0165 37.2847C23.9647 37.0182 23.992 36.7428 24.095 36.4909C24.1974 36.2405 24.3706 36.0238 24.5941 35.8659C24.8302 35.6869 25.1148 35.5795 25.4127 35.5571C25.7096 35.5348 26.0067 35.5979 26.2674 35.7385C26.5278 35.8615 26.77 36.0184 26.9874 36.205L26.9915 36.2084C27.3761 36.5523 27.8414 36.6419 28.2876 36.5589C28.7403 36.4747 29.166 36.2128 29.4398 35.8653C29.7118 35.52 29.821 35.1098 29.6914 34.7116C29.561 34.3105 29.1689 33.8611 28.3074 33.4854C28.0822 33.3919 27.8487 33.3165 27.6058 33.2431C27.5403 33.2233 27.4737 33.2036 27.4063 33.1836C27.2267 33.1303 27.0419 33.0754 26.8607 33.0149C26.7359 32.9733 26.6121 32.9339 26.4895 32.8948C26.1544 32.7881 25.8277 32.6841 25.5133 32.5446C24.829 32.3168 24.2378 31.8794 23.8277 31.2971C23.4159 30.7125 23.2087 30.0134 23.2369 29.3042C23.2391 27.5759 24.3524 26.3852 25.7637 25.7478Z" fill="#3A3B7B"/>
<path d="M43.5612 25.5639C43.289 25.4339 42.988 25.3722 42.6854 25.3843C42.3827 25.3965 42.0879 25.4821 41.8276 25.6336C41.5689 25.784 41.3523 25.9946 41.1971 26.2467C41.0548 26.459 40.9563 26.6964 40.9072 26.9457C40.8581 27.1948 40.8593 27.4508 40.9106 27.6993C40.9613 28.0187 41.0175 28.3293 41.073 28.6356C41.1649 29.1425 41.2543 29.638 41.3133 30.1432L41.3155 30.156C41.4498 30.9483 41.5201 31.7496 41.5264 32.5526L41.527 32.564C41.5729 33.4312 41.2707 34.2815 40.6852 34.9345L40.6759 34.9461C40.4854 35.1848 40.2307 35.367 39.9402 35.4723C39.6498 35.5776 39.3352 35.6018 39.0315 35.5422C38.7278 35.4826 38.4471 35.3416 38.2207 35.1349C37.9943 34.9282 37.831 34.6632 37.7495 34.3711C37.5755 33.7554 37.4748 33.1221 37.4492 32.4839L37.7464 27.8576C37.7508 27.7972 37.7558 27.7352 37.7609 27.6726C37.7722 27.5321 37.7838 27.389 37.7886 27.2555C37.7956 27.0591 37.7896 26.8571 37.7428 26.6659C37.6949 26.4705 37.6038 26.2846 37.4422 26.1263C37.2822 25.9696 37.0662 25.854 36.7944 25.7753C36.3029 25.6362 35.8873 25.6406 35.541 25.7843C35.1945 25.928 34.9571 26.1948 34.7891 26.503C34.6224 26.8086 34.5153 27.1704 34.4343 27.5328C34.3742 27.8017 34.3259 28.084 34.28 28.3527C34.2641 28.4453 34.2486 28.5362 34.2329 28.6245L34.2325 28.6271C33.9869 30.1007 33.9138 31.5969 34.0146 33.0867C34.0334 33.8918 34.2051 34.6865 34.5211 35.4302C34.8776 36.3898 35.5233 37.2212 36.373 37.8147C37.2245 38.4094 38.2406 38.7371 39.2868 38.7544C40.333 38.7717 41.3599 38.4778 42.2315 37.9117C43.1017 37.3464 43.7761 36.5362 44.1655 35.5883C44.7102 34.3808 44.966 33.0676 44.9132 31.7488C44.8812 30.786 44.8276 29.8158 44.7743 28.8505C44.7481 28.377 44.722 27.9045 44.6986 27.4349C44.6868 26.964 44.528 26.5079 44.2434 26.1278C44.0673 25.8875 43.8329 25.6937 43.5612 25.5639Z" fill="#3A3B7B"/>
<path d="M53.197 32.8177C53.1694 32.852 53.1403 32.8875 53.1099 32.9244C52.8885 31.6756 52.6833 30.4272 52.4778 29.1769C52.4041 28.7283 52.33 28.2778 52.2555 27.8286L52.2471 27.7785L52.2199 27.7352C52.1686 27.6537 52.1635 27.5738 52.1635 27.4034V27.3837L52.1604 27.3642C52.1048 27.0123 51.942 26.6848 51.6933 26.4246C51.4453 26.1651 51.1232 25.9845 50.7689 25.9061C50.4152 25.8208 50.0435 25.8396 49.7006 25.9602C49.3586 26.0805 49.0605 26.2967 48.8435 26.5817C48.6631 26.8004 48.5152 27.043 48.4044 27.3022C48.1529 27.8606 47.8992 28.4204 47.6448 28.9817L47.6404 28.9914C47.0053 30.3927 46.3659 31.8034 45.7451 33.2252L45.7432 33.2298C45.3621 34.1517 45.0475 35.1231 44.734 36.0915C44.6714 36.2848 44.6088 36.478 44.5457 36.6707C44.4325 36.9763 44.383 37.3009 44.4 37.6254C44.3794 37.9159 44.4505 38.2057 44.6039 38.4556C44.7603 38.7106 44.9946 38.9112 45.2737 39.0293C45.5695 39.1561 45.9002 39.183 46.2135 39.1058C46.5261 39.0287 46.8037 38.8523 47.0026 38.6043C47.2566 38.2988 47.4751 37.9656 47.6533 37.6126C48.1792 36.5608 48.6818 35.4962 49.1821 34.4362C49.3757 34.0262 49.5638 33.659 49.7778 33.2591C49.7925 33.3084 49.8075 33.3565 49.823 33.4047C50.0473 34.3702 50.4259 35.295 50.9448 36.1452C51.043 36.3253 51.1798 36.4827 51.3458 36.6066C51.5138 36.732 51.7077 36.82 51.914 36.8647C52.1203 36.9094 52.3341 36.9096 52.5405 36.8653C52.7466 36.8211 52.9411 36.733 53.1092 36.6082L53.4419 36.3647L56.0242 34.238L55.8715 35.1895C55.6619 36.4974 55.4539 37.7944 55.2329 39.0917C55.0883 39.6667 55.0885 40.2673 55.2335 40.8421C55.2963 41.1656 55.4563 41.4634 55.6931 41.6976C55.9319 41.9337 56.2377 42.0941 56.5709 42.1581C56.9041 42.222 57.2493 42.1866 57.5616 42.0563C57.8694 41.928 58.1312 41.7134 58.3142 41.4399C58.74 40.9234 59.005 40.2981 59.0778 39.6384C59.1874 38.7068 59.3112 37.7625 59.4351 36.8185C59.5778 35.7304 59.7205 34.6426 59.841 33.5757L59.8414 33.5724C59.9574 32.4045 60.0135 31.2318 60.0096 30.0584C60.035 29.6876 59.9406 29.3182 59.7394 29.0025C59.5375 28.6857 59.2385 28.4394 58.8851 28.2985C58.5175 28.1351 58.106 28.0914 57.7111 28.174C57.3188 28.256 56.9637 28.4582 56.6973 28.7511C56.221 29.1818 55.7742 29.6427 55.3597 30.1308L55.3569 30.1341C54.9044 30.6854 54.455 31.2475 54.0085 31.806C53.737 32.1455 53.4663 32.4842 53.197 32.8177Z" fill="#3A3B7B"/>
</g>
<defs>
<clipPath id="clip0_813_128">
<rect width="70" height="44" fill="white"/>
</clipPath>
</defs>
</svg>
